<svg width="130.968" height="26.533" viewBox="0 0 130.968 26.533" xmlns="http://www.w3.org/2000/svg"><g id="svgGroup" stroke-linecap="round" fill-rule="evenodd" font-size="9pt" stroke="#00000000" stroke-width="0.25mm" fill="#002de3" style="stroke:#00000000;stroke-width:0.25mm;fill:#002de3"><path d="M 71.244 13.788 L 71.244 26.1 L 64.08 26.1 L 64.08 14.652 A 3.873 3.873 0 0 0 63.999 13.835 Q 63.879 13.278 63.581 12.858 A 2.362 2.362 0 0 0 63.45 12.69 A 2.052 2.052 0 0 0 62.215 11.999 A 3.052 3.052 0 0 0 61.668 11.952 A 3.346 3.346 0 0 0 60.669 12.095 A 2.694 2.694 0 0 0 59.508 12.816 A 2.946 2.946 0 0 0 58.68 14.901 A 3.81 3.81 0 0 0 58.68 14.94 L 58.68 26.1 L 51.516 26.1 L 51.516 0 L 58.68 0 L 58.68 9.072 Q 59.832 7.92 61.38 7.29 Q 62.928 6.66 64.62 6.66 Q 66.989 6.66 68.511 7.599 A 4.929 4.929 0 0 1 69.588 8.496 Q 70.977 10.036 71.201 12.715 A 12.881 12.881 0 0 1 71.244 13.788 Z M 18.72 15.732 L 24.228 26.1 L 15.3 26.1 L 10.908 17.064 L 7.956 17.064 L 7.956 26.1 L 0 26.1 L 0 1.332 L 15.156 1.332 Q 17.82 1.332 19.71 2.358 A 7.294 7.294 0 0 1 21.624 3.83 A 6.58 6.58 0 0 1 22.554 5.13 Q 23.508 6.876 23.508 8.928 Q 23.508 11.196 22.284 13.032 A 6.759 6.759 0 0 1 19.69 15.307 A 8.768 8.768 0 0 1 18.72 15.732 Z M 46.728 12.852 L 46.728 20.268 A 2.134 2.134 0 0 0 46.772 20.713 Q 46.84 21.034 47.016 21.276 A 0.933 0.933 0 0 0 47.642 21.653 A 1.431 1.431 0 0 0 47.88 21.672 L 49.176 21.672 L 49.176 25.812 Q 49.068 25.884 48.618 26.046 A 4.967 4.967 0 0 1 48.3 26.147 Q 47.964 26.243 47.497 26.339 A 18.391 18.391 0 0 1 47.34 26.37 A 8.212 8.212 0 0 1 46.508 26.486 Q 46.006 26.532 45.432 26.532 A 11.424 11.424 0 0 1 44.027 26.451 Q 43.301 26.361 42.693 26.171 A 5.583 5.583 0 0 1 41.994 25.902 A 4.536 4.536 0 0 1 41.084 25.348 A 3.192 3.192 0 0 1 40.14 24.156 Q 38.772 25.236 37.08 25.884 A 9.387 9.387 0 0 1 35.182 26.38 Q 34.281 26.522 33.261 26.531 A 15.688 15.688 0 0 1 33.12 26.532 Q 27.004 26.532 26.474 22.087 A 7.464 7.464 0 0 1 26.424 21.204 A 8.212 8.212 0 0 1 26.581 19.545 Q 26.786 18.554 27.257 17.797 A 4.384 4.384 0 0 1 27.918 16.974 Q 29.168 15.754 31.337 15.177 A 12.927 12.927 0 0 1 32.22 14.976 Q 34.107 14.613 36.773 14.494 A 62.771 62.771 0 0 1 39.564 14.436 L 39.564 13.5 Q 39.564 12.384 38.79 11.808 A 2.795 2.795 0 0 0 37.761 11.338 Q 37.373 11.245 36.922 11.234 A 5.051 5.051 0 0 0 36.792 11.232 A 5.284 5.284 0 0 0 35.874 11.308 Q 35.322 11.405 34.866 11.628 Q 34.103 12.001 34.059 12.79 A 1.76 1.76 0 0 0 34.056 12.888 L 34.056 13.032 L 27 13.032 A 1.469 1.469 0 0 1 26.981 12.905 Q 26.966 12.773 26.964 12.589 A 5.465 5.465 0 0 1 26.964 12.528 Q 26.964 9.828 29.538 8.244 Q 32.112 6.66 36.9 6.66 Q 40.095 6.66 42.418 7.444 A 10.44 10.44 0 0 1 43.992 8.118 A 5.196 5.196 0 0 1 45.763 9.603 Q 46.509 10.611 46.678 12.004 A 7.039 7.039 0 0 1 46.728 12.852 Z M 94.752 12.852 L 94.752 20.268 A 2.134 2.134 0 0 0 94.796 20.713 Q 94.864 21.034 95.04 21.276 A 0.933 0.933 0 0 0 95.666 21.653 A 1.431 1.431 0 0 0 95.904 21.672 L 97.2 21.672 L 97.2 25.812 Q 97.092 25.884 96.642 26.046 A 4.967 4.967 0 0 1 96.324 26.147 Q 95.988 26.243 95.521 26.339 A 18.391 18.391 0 0 1 95.364 26.37 A 8.212 8.212 0 0 1 94.532 26.486 Q 94.03 26.532 93.456 26.532 A 11.424 11.424 0 0 1 92.051 26.451 Q 91.325 26.361 90.717 26.171 A 5.583 5.583 0 0 1 90.018 25.902 A 4.536 4.536 0 0 1 89.108 25.348 A 3.192 3.192 0 0 1 88.164 24.156 Q 86.796 25.236 85.104 25.884 A 9.387 9.387 0 0 1 83.206 26.38 Q 82.305 26.522 81.285 26.531 A 15.688 15.688 0 0 1 81.144 26.532 Q 75.028 26.532 74.498 22.087 A 7.464 7.464 0 0 1 74.448 21.204 A 8.212 8.212 0 0 1 74.605 19.545 Q 74.81 18.554 75.281 17.797 A 4.384 4.384 0 0 1 75.942 16.974 Q 77.192 15.754 79.361 15.177 A 12.927 12.927 0 0 1 80.244 14.976 Q 82.131 14.613 84.797 14.494 A 62.771 62.771 0 0 1 87.588 14.436 L 87.588 13.5 Q 87.588 12.384 86.814 11.808 A 2.795 2.795 0 0 0 85.785 11.338 Q 85.397 11.245 84.946 11.234 A 5.051 5.051 0 0 0 84.816 11.232 A 5.284 5.284 0 0 0 83.898 11.308 Q 83.346 11.405 82.89 11.628 Q 82.127 12.001 82.083 12.79 A 1.76 1.76 0 0 0 82.08 12.888 L 82.08 13.032 L 75.024 13.032 A 1.469 1.469 0 0 1 75.005 12.905 Q 74.99 12.773 74.988 12.589 A 5.465 5.465 0 0 1 74.988 12.528 Q 74.988 9.828 77.562 8.244 Q 80.136 6.66 84.924 6.66 Q 88.119 6.66 90.442 7.444 A 10.44 10.44 0 0 1 92.016 8.118 A 5.196 5.196 0 0 1 93.787 9.603 Q 94.533 10.611 94.702 12.004 A 7.039 7.039 0 0 1 94.752 12.852 Z M 118.764 12.852 L 118.764 20.268 A 2.134 2.134 0 0 0 118.808 20.713 Q 118.876 21.034 119.052 21.276 A 0.933 0.933 0 0 0 119.678 21.653 A 1.431 1.431 0 0 0 119.916 21.672 L 121.212 21.672 L 121.212 25.812 Q 121.104 25.884 120.654 26.046 A 4.967 4.967 0 0 1 120.336 26.147 Q 120 26.243 119.533 26.339 A 18.391 18.391 0 0 1 119.376 26.37 A 8.212 8.212 0 0 1 118.544 26.486 Q 118.042 26.532 117.468 26.532 A 11.424 11.424 0 0 1 116.063 26.451 Q 115.337 26.361 114.729 26.171 A 5.583 5.583 0 0 1 114.03 25.902 A 4.536 4.536 0 0 1 113.12 25.348 A 3.192 3.192 0 0 1 112.176 24.156 Q 110.808 25.236 109.116 25.884 A 9.387 9.387 0 0 1 107.218 26.38 Q 106.317 26.522 105.297 26.531 A 15.688 15.688 0 0 1 105.156 26.532 Q 99.04 26.532 98.51 22.087 A 7.464 7.464 0 0 1 98.46 21.204 A 8.212 8.212 0 0 1 98.617 19.545 Q 98.822 18.554 99.293 17.797 A 4.384 4.384 0 0 1 99.954 16.974 Q 101.204 15.754 103.373 15.177 A 12.927 12.927 0 0 1 104.256 14.976 Q 106.143 14.613 108.809 14.494 A 62.771 62.771 0 0 1 111.6 14.436 L 111.6 13.5 Q 111.6 12.384 110.826 11.808 A 2.795 2.795 0 0 0 109.797 11.338 Q 109.409 11.245 108.958 11.234 A 5.051 5.051 0 0 0 108.828 11.232 A 5.284 5.284 0 0 0 107.91 11.308 Q 107.358 11.405 106.902 11.628 Q 106.139 12.001 106.095 12.79 A 1.76 1.76 0 0 0 106.092 12.888 L 106.092 13.032 L 99.036 13.032 A 1.469 1.469 0 0 1 99.017 12.905 Q 99.002 12.773 99 12.589 A 5.465 5.465 0 0 1 99 12.528 Q 99 9.828 101.574 8.244 Q 104.148 6.66 108.936 6.66 Q 112.131 6.66 114.454 7.444 A 10.44 10.44 0 0 1 116.028 8.118 A 5.196 5.196 0 0 1 117.799 9.603 Q 118.545 10.611 118.714 12.004 A 7.039 7.039 0 0 1 118.764 12.852 Z M 130.968 26.1 L 123.804 26.1 L 123.804 0 L 130.968 0 L 130.968 26.1 Z M 13.176 6.984 L 7.956 6.984 L 7.956 11.556 L 13.176 11.556 A 2.122 2.122 0 0 0 14.729 10.921 A 2.546 2.546 0 0 0 14.76 10.89 A 2.258 2.258 0 0 0 15.408 9.256 A 3.001 3.001 0 0 0 15.408 9.252 A 2.395 2.395 0 0 0 15.261 8.399 A 2.153 2.153 0 0 0 14.76 7.632 Q 14.112 6.984 13.176 6.984 Z M 39.564 19.44 L 39.564 17.82 A 22.438 22.438 0 0 0 37.99 17.871 Q 36.478 17.978 35.501 18.307 A 4.742 4.742 0 0 0 35.046 18.486 A 3.878 3.878 0 0 0 34.41 18.846 Q 34.089 19.074 33.893 19.341 A 1.531 1.531 0 0 0 33.588 20.268 A 1.848 1.848 0 0 0 33.768 21.113 Q 34.253 22.068 36.036 22.068 Q 37.44 22.068 38.502 21.312 Q 39.564 20.556 39.564 19.44 Z M 87.588 19.44 L 87.588 17.82 A 22.438 22.438 0 0 0 86.014 17.871 Q 84.502 17.978 83.525 18.307 A 4.742 4.742 0 0 0 83.07 18.486 A 3.878 3.878 0 0 0 82.434 18.846 Q 82.113 19.074 81.917 19.341 A 1.531 1.531 0 0 0 81.612 20.268 A 1.848 1.848 0 0 0 81.792 21.113 Q 82.277 22.068 84.06 22.068 Q 85.464 22.068 86.526 21.312 Q 87.588 20.556 87.588 19.44 Z M 111.6 19.44 L 111.6 17.82 A 22.438 22.438 0 0 0 110.026 17.871 Q 108.514 17.978 107.537 18.307 A 4.742 4.742 0 0 0 107.082 18.486 A 3.878 3.878 0 0 0 106.446 18.846 Q 106.125 19.074 105.929 19.341 A 1.531 1.531 0 0 0 105.624 20.268 A 1.848 1.848 0 0 0 105.804 21.113 Q 106.289 22.068 108.072 22.068 Q 109.476 22.068 110.538 21.312 Q 111.6 20.556 111.6 19.44 Z" vector-effect="non-scaling-stroke"/></g></svg>
